<?xml version="1.0" encoding="UTF-8" standalone="no"?>
<!-- Created with Inkscape (http://www.inkscape.org/) -->

<svg
   version="1.1"
   id="svg1"
   width="1372"
   height="768"
   viewBox="0 0 1372 768"
   sodipodi:docname="logo_mr2_vetorizado.svg"
   inkscape:export-filename="logo_mr2_vetorizado.png"
   inkscape:export-xdpi="62.5"
   inkscape:export-ydpi="62.5"
   inkscape:version="1.4.3 (0d15f75, 2025-12-25)"
   xmlns:inkscape="http://www.inkscape.org/namespaces/inkscape"
   xmlns:sodipodi="http://sodipodi.sourceforge.net/DTD/sodipodi-0.dtd"
   xmlns="http://www.w3.org/2000/svg"
   xmlns:svg="http://www.w3.org/2000/svg">
  <defs
     id="defs1" />
  <sodipodi:namedview
     id="namedview1"
     pagecolor="#ffffff"
     bordercolor="#000000"
     borderopacity="0.25"
     inkscape:showpageshadow="2"
     inkscape:pageopacity="0.0"
     inkscape:pagecheckerboard="0"
     inkscape:deskcolor="#d1d1d1"
     inkscape:export-bgcolor="#00000000"
     inkscape:zoom="0.37150727"
     inkscape:cx="911.15309"
     inkscape:cy="547.76855"
     inkscape:window-width="1920"
     inkscape:window-height="1009"
     inkscape:window-x="-8"
     inkscape:window-y="-8"
     inkscape:window-maximized="1"
     inkscape:current-layer="g1">
    <inkscape:page
       x="0"
       y="0"
       width="1372"
       height="768"
       id="page2"
       margin="0"
       bleed="0" />
  </sodipodi:namedview>
  <g
     inkscape:groupmode="layer"
     inkscape:label="Image"
     id="g1">
    <g
       id="g2">
      <path
         style="fill:#fdfdfd;fill-opacity:1;stroke-width:2.34297"
         d="m 975.29819,435.23328 c -3.3492,-0.63381 -9.5606,-6.40102 -15.54802,-14.43603 -15.43604,-20.71471 -15.72472,-19.04736 5.2345,-30.23726 14.97403,-7.99461 21.58676,-13.42719 33.23278,-27.30175 7.99635,-9.52666 17.90655,-24.50488 22.02245,-33.28496 l 7.4837,-15.96377 38.6562,-0.01 38.6562,-0.01 -7.4241,9.43631 c -25.2641,32.11123 -89.7045,107.94397 -93.888,110.48639 -4.83607,2.93893 -16.90729,3.49919 -28.42571,1.31928 z"
         id="path5" />
      <path
         style="fill:#fdfdfd;fill-opacity:1;stroke-width:2.34297"
         d="m 259.18971,435.15552 c 0,-1.02887 2.27713,-4.62764 5.06032,-7.99727 33.95259,-41.10672 78.1103,-93.48135 78.81532,-93.48135 0.49352,0 0.8973,23.25358 0.8973,51.67463 v 51.67463 h -42.38647 c -23.31256,0 -42.38647,-0.84178 -42.38647,-1.87064 z"
         id="path4" />
      <path
         style="fill:#ff2a4d;fill-opacity:1;stroke-width:2.34297"
         d="M 359.57872,375.50874 V 154.04603 l 31.78986,0.0123 31.78981,0.0123 37.92474,50.87862 c 20.8586,27.98324 41.49078,55.38344 45.849,60.88933 4.35844,5.50591 14.2916,18.86921 22.07353,29.69628 7.78216,10.82706 17.93841,24.44594 22.56991,30.26416 l 8.42063,10.57858 50.56305,-67.17461 c 27.80954,-36.94603 58.76014,-77.95874 68.77919,-91.13934 l 18.21659,-23.96472 110.42792,0.01 c 122.02173,0.01 127.27319,0.53919 152.47596,15.35605 18.88898,11.10486 31.79655,26.4835 42.15429,50.22403 19.4955,44.68512 12.0631,92.98631 -19.72069,128.16128 -17.63612,19.51783 -40.15873,31.98256 -61.82156,34.21388 -8.21138,0.84579 -14.92963,2.08571 -14.92963,2.75536 0,1.77729 21.88949,31.57822 50.0959,68.20188 13.55095,17.59467 32.16732,41.88822 41.36964,53.98567 9.20234,12.09742 28.15694,37.01141 42.12144,55.36442 l 25.39,33.36907 -64.4302,0.71515 -64.43008,0.71518 -8.66558,-10.55797 c -4.76602,-5.80685 -40.90629,-53.0023 -80.31143,-104.87876 -39.40515,-51.87646 -73.89948,-97.27631 -76.65393,-100.88857 l -5.00852,-6.56774 v 47.87984 l -0.0223,47.87985 -7.47296,8.71618 c -4.11015,4.7939 -25.71208,32.83807 -48.00446,62.32037 -22.76243,30.10416 -41.00222,52.21889 -41.60545,50.44428 -0.59073,-1.73794 -1.32536,-54.75067 -1.63233,-117.80608 l -0.55838,-114.64618 -53.25124,71.1651 c -29.28816,39.14081 -54.02736,70.24628 -54.97593,69.12329 -2.0524,-2.43006 -63.18596,-83.88986 -86.93198,-115.83602 -10.19885,-13.72082 -17.2997,-21.36454 -18.25831,-19.65386 -0.86267,1.53971 -1.62719,53.788 -1.6988,116.10736 -0.0714,62.31934 -0.13831,114.13837 -0.14724,115.1534 0,1.01504 -20.59581,1.84553 -45.74879,1.84553 h -45.73277 z m 485.98363,-71.68283 c 41.29379,-23.18498 75.49789,-42.56296 76.00898,-43.06219 0.51132,-0.49925 -34.37409,-0.90773 -77.52263,-0.90773 h -78.45223 v 43.0622 c 0,29.56318 0.76586,43.06219 2.44325,43.06219 1.34387,0 36.22905,-18.96951 77.52263,-42.15447 z"
         id="path3" />
      <ellipse
         style="fill:#ff2a4d;fill-opacity:1;stroke-width:2.34297"
         id="path16"
         cx="1086.9923"
         cy="577.1803"
         rx="16.240957"
         ry="17.914143" />
    </g>
  </g>
</svg>
